<svg width="32" height="32" viewBox="0 0 32 32" fill="none" xmlns="http://www.w3.org/2000/svg">
<path d="M8.3442 17.8865C8.10464 18.2516 8.18894 18.7542 8.52936 19.0078L9.04387 19.3908C8.20411 20.2594 7.07792 20.7508 5.90168 20.7508H4.49725V19.0121C4.49725 18.5689 4.16207 18.2096 3.74863 18.2096C3.33519 18.2096 3 18.5689 3 19.0121V27.1975C3 27.6407 3.33519 28 3.74863 28C4.16207 28 4.49725 27.6407 4.49725 27.1975V25.5658H5.51199C8.19867 25.5658 10.8261 24.3548 12.6924 22.107L13.4414 22.6645C13.7814 22.9191 14.2531 22.8257 14.4869 22.4569L15 21.6496L8.92663 17L8.3442 17.8865Z" fill="white"/>
<path d="M28.6914 18.1915L28.4303 18L23 22.6567L24.5538 23.8572C24.8573 24.0915 25.2816 24.0323 25.5181 23.7174L28.8429 19.2962C29.1035 18.9495 29.031 18.44 28.6914 18.1915Z" fill="white"/>
<path d="M27.6872 15.3748L13.1664 4.30227C12.5141 3.80482 11.6085 3.9341 11.1047 4.59634L6.33245 10.8682C5.78974 11.5816 5.92673 12.6328 6.63216 13.1648L19.4787 22.8515C19.7532 23.0585 20.125 23.0483 20.3889 22.8256L27.7165 16.6442C28.1058 16.3158 28.0924 15.6837 27.6872 15.3748ZM22.3422 16.7849C21.9252 16.7849 21.5871 16.4279 21.5871 15.9875C21.5871 15.5471 21.9252 15.1901 22.3422 15.1901C22.7593 15.1901 23.0974 15.5471 23.0974 15.9875C23.0974 16.4279 22.7593 16.7849 22.3422 16.7849Z" fill="white"/>
</svg>
