<svg width="21" height="19" viewBox="0 0 21 19" fill="none" xmlns="http://www.w3.org/2000/svg">
<path d="M15.4167 8.6771H19.0487C19.2191 8.67719 19.3866 8.72082 19.5354 8.80384C19.6842 8.88687 19.8093 9.00654 19.8989 9.1515C19.9884 9.29645 20.0395 9.46189 20.0471 9.63211C20.0548 9.80233 20.0189 9.97168 19.9427 10.1241L17.9087 14.1931C17.8316 14.3473 17.7159 14.4789 17.5729 14.5752C17.4299 14.6715 17.2644 14.7292 17.0925 14.7427C16.9207 14.7562 16.7482 14.725 16.592 14.6522C16.4357 14.5794 16.3009 14.4674 16.2007 14.3271L14.0767 11.3571M0.666687 15.6771H4.42669C4.79942 15.6797 5.16545 15.5781 5.48351 15.3837C5.80156 15.1893 6.05896 14.91 6.22669 14.5771L7.66669 11.6771M0.666687 17.6771V13.6771M5.66669 5.6771H5.67669M15.7727 5.7301C16.0097 5.84875 16.1899 6.05664 16.2737 6.30809C16.3575 6.55954 16.3381 6.83398 16.2197 7.0711L13.1137 13.2821C13.0549 13.3996 12.9736 13.5043 12.8744 13.5904C12.7751 13.6764 12.6599 13.7421 12.5353 13.7836C12.4107 13.8251 12.2791 13.8417 12.1481 13.8323C12.017 13.823 11.8891 13.7879 11.7717 13.7291L2.27669 8.9771C1.58702 8.62971 1.06304 8.02328 0.819407 7.29051C0.575773 6.55773 0.632325 5.75828 0.976687 5.0671L2.35669 2.2771C2.52869 1.93432 2.76653 1.62878 3.05662 1.37794C3.34672 1.12709 3.68339 0.935841 4.04741 0.815121C4.41142 0.694401 4.79566 0.646572 5.17816 0.674365C5.56066 0.702158 5.93395 0.805028 6.27669 0.977101L15.7727 5.7301Z" stroke="white" stroke-width="1.33333" stroke-linecap="round" stroke-linejoin="round"/>
</svg>
