<svg width="16" height="16" viewBox="0 0 16 16" fill="none" xmlns="http://www.w3.org/2000/svg">
<path d="M3.99998 5.33334V6.00001M6.66665 5.33334V6.00001M9.33331 5.33334V6.00001M12 5.33334V6.00001M9.99998 13.3333L12 11.3333H13.3333C13.6869 11.3333 14.0261 11.1929 14.2761 10.9428C14.5262 10.6928 14.6666 10.3536 14.6666 10V4.00001C14.6666 3.64638 14.5262 3.30724 14.2761 3.0572C14.0261 2.80715 13.6869 2.66667 13.3333 2.66667H2.66665C2.31302 2.66667 1.97389 2.80715 1.72384 3.0572C1.47379 3.30724 1.33331 3.64638 1.33331 4.00001V10C1.33331 10.3536 1.47379 10.6928 1.72384 10.9428C1.97389 11.1929 2.31302 11.3333 2.66665 11.3333H3.99998L5.99998 13.3333H9.99998Z" stroke="#95A5BA" stroke-width="1.33333" stroke-linecap="round" stroke-linejoin="round"/>
</svg>
