<svg width="52" height="52" viewBox="0 0 52 52" fill="none" xmlns="http://www.w3.org/2000/svg">
<rect x="0.5" y="0.5" width="51" height="51" rx="7.5" fill="#07FF45" fill-opacity="0.1"/>
<rect x="0.5" y="0.5" width="51" height="51" rx="7.5" stroke="#34C759"/>
<path d="M11.75 18.0833V14.9167C11.75 14.0768 12.0836 13.2714 12.6775 12.6775C13.2714 12.0836 14.0768 11.75 14.9167 11.75H18.0833M33.9167 11.75H37.0833C37.9232 11.75 38.7286 12.0836 39.3225 12.6775C39.9164 13.2714 40.25 14.0768 40.25 14.9167V18.0833M40.25 33.9167V37.0833C40.25 37.9232 39.9164 38.7286 39.3225 39.3225C38.7286 39.9164 37.9232 40.25 37.0833 40.25H33.9167M18.0833 40.25H14.9167C14.0768 40.25 13.2714 39.9164 12.6775 39.3225C12.0836 38.7286 11.75 37.9232 11.75 37.0833V33.9167M19.6667 29.1667C19.6667 29.1667 22.0417 32.3333 26 32.3333C29.9583 32.3333 32.3333 29.1667 32.3333 29.1667M21.25 21.25H21.2658M30.75 21.25H30.7658" stroke="#34C759" stroke-width="2" stroke-linecap="round" stroke-linejoin="round"/>
</svg>
