<?xml version="1.0" encoding="utf-8"?>
<svg version="1.1" id="Layer_1" xmlns="http://www.w3.org/2000/svg" xmlns:xlink="http://www.w3.org/1999/xlink" x="0px"
     y="0px" viewBox="0 0 98.92 122.88" style="enable-background:new 0 0 98.92 122.88" xml:space="preserve"><style>.cls-1{fill:#fff;fill-rule:evenodd;}</style><g><path fill="#fff" d="M96.54,57.98c-0.89-0.59-1.89-0.87-2.89-0.87l0.79-1.19c0.8-1.22,1.04-2.65,0.77-3.98c-0.27-1.33-1.05-2.56-2.27-3.36 c0,0,0,0,0,0c-0.9-0.6-1.97-0.9-3.05-0.87l0.64-0.96c0.8-1.22,1.04-2.65,0.77-3.98c-0.27-1.33-1.05-2.56-2.27-3.36 c-1.22-0.8-2.65-1.04-3.98-0.77c-1.33,0.27-2.56,1.05-3.36,2.27l-0.64,0.98c-0.39-0.95-1.06-1.8-1.97-2.4 c-1.22-0.8-2.65-1.04-3.98-0.77c-1.33,0.27-2.56,1.05-3.36,2.27L57.83,61.98c-0.3,0.33-0.57,0.68-0.82,1.05l0,0l-0.82,1.24 l-0.04-0.18c-0.29-1.22-0.54-2.45-0.64-2.92c-0.64-3.13-2.4-4.88-4.35-5.43c-0.88-0.25-1.78-0.25-2.64-0.04 c-0.85,0.22-1.66,0.65-2.34,1.29c-1.61,1.5-2.52,4.14-1.61,7.59l0.01,0.06l0,0l0,0.01c0.72,3.63,1.02,11.81,3.22,17.59L35.57,97.12 c-0.23,0.27-0.62,0.7-0.99,1.12c-2.72,3.04-4.5,5.03-2.3,10.06c0.82,1.87,2.16,3.7,3.84,5.4c3.12,3.15,7.43,5.87,11.62,7.51 c4.32,1.69,8.58,2.25,11.45,1c0.67-0.29,1.26-0.68,1.77-1.17c0.12-0.11,0.23-0.24,0.3-0.4l10.61-23.04 c3.32-2.08,7.13-3.44,9.28-6.7l5.48-8.29c0.19-0.29,0.36-0.59,0.52-0.89c0.09-0.08,0.17-0.17,0.24-0.27c0,0,0.01-0.01,0.01-0.01 l10.64-16.11c0.8-1.22,1.04-2.65,0.77-3.98C98.54,60.01,97.76,58.78,96.54,57.98L96.54,57.98L96.54,57.98z M5.24,11.56 c1.06-0.01,2.06,0.29,2.9,0.83l-0.02-1.43C8.1,9.5,8.68,8.17,9.63,7.2c0.95-0.97,2.27-1.58,3.73-1.6c0,0,0,0,0.01,0 c1.08-0.01,2.14,0.31,3.04,0.92l-0.01-1.15c-0.02-1.46,0.56-2.79,1.51-3.76c0.95-0.97,2.27-1.58,3.73-1.6 c1.46-0.02,2.79,0.56,3.76,1.51c0.97,0.95,1.58,2.27,1.6,3.73L27,6.41c0.84-0.59,1.86-0.94,2.96-0.95 c1.46-0.02,2.79,0.56,3.76,1.51c0.97,0.95,1.58,2.27,1.6,3.73l0.3,25.19c0.07,0.44,0.11,0.88,0.12,1.33l0,0l0.02,1.48l0.13-0.13 c0.9-0.87,1.78-1.77,2.11-2.11c2.23-2.29,4.66-2.8,6.6-2.21c0.87,0.27,1.64,0.75,2.24,1.4c0.6,0.64,1.04,1.45,1.27,2.35 c0.54,2.14-0.12,4.84-2.75,7.25l-0.04,0.04l0,0l-0.01,0.01c-2.57,2.66-7.25,9.38-12.23,13.05l2.26,19.13 c0.05,0.35,0.14,0.93,0.23,1.48c0.64,4.03,1.06,6.66-3.51,9.7c-1.7,1.13-3.82,1.94-6.15,2.46c-4.33,0.96-9.42,0.92-13.83,0.03 c-4.55-0.92-8.44-2.75-10.17-5.36c-0.4-0.61-0.69-1.25-0.86-1.94c-0.05-0.16-0.06-0.32-0.04-0.5l3.54-25.12 c-1.66-3.55-4.13-6.75-4.18-10.65l-0.12-9.94c0-0.35,0.01-0.69,0.04-1.03c-0.04-0.12-0.06-0.24-0.06-0.36c0,0,0-0.01,0-0.01 L0,16.93c-0.02-1.46,0.56-2.79,1.51-3.76C2.46,12.19,3.78,11.58,5.24,11.56L5.24,11.56L5.24,11.56z M30.39,57.77 c4.64-3.93,11.45-12.34,13.19-14.14c0.04-0.04,0.08-0.08,0.12-0.12l0.81,0.89l-0.81-0.89c1.91-1.73,2.42-3.56,2.08-4.94 c-0.13-0.5-0.37-0.94-0.69-1.29c-0.32-0.35-0.72-0.6-1.18-0.74c-1.15-0.35-2.66,0.04-4.18,1.59c-0.35,0.35-1.27,1.3-2.17,2.17 c-0.85,0.81-1.72,1.6-2.29,1.93c-0.19,0.13-0.42,0.21-0.66,0.21c0,0,0,0,0,0l-0.96-0.45l-0.34-4.74 c-0.11-8.88-0.28-17.61-0.38-26.52c-0.01-0.79-0.34-1.51-0.88-2.03c-0.53-0.52-1.26-0.83-2.05-0.82c-0.79,0.01-1.51,0.34-2.03,0.87 c-0.52,0.53-0.84,1.26-0.83,2.05l0.21,17.28l-2.49,0.03L24.58,5.27c-0.01-0.79-0.34-1.51-0.87-2.03c-0.53-0.52-1.26-0.84-2.05-0.83 s-1.51,0.34-2.03,0.88c-0.52,0.53-0.84,1.26-0.83,2.05l0.27,22.83l-2.55,0.03l-0.21-17.34c-0.01-0.79-0.34-1.51-0.88-2.03 C14.91,8.31,14.18,8,13.39,8.01c-0.79,0.01-1.51,0.34-2.03,0.88c-0.52,0.53-0.84,1.26-0.83,2.05l0.21,17.34L8.33,28.3L8.19,16.83 c-0.01-0.79-0.34-1.51-0.87-2.03c-0.53-0.52-1.26-0.84-2.05-0.83c-0.79,0.01-1.51,0.34-2.03,0.88c-0.52,0.53-0.83,1.26-0.82,2.05 l0.14,11.47l0.02,1.78l0.09,7.21c0,0.08,0,0.16,0,0.25l0.12,9.94c0.03,2.67,2.83,7.43,4.04,10.01c0.1,0.21,0.13,0.44,0.1,0.65h0 L3.35,83.45c0.1,0.36,0.27,0.7,0.49,1.04c1.37,2.06,4.7,3.56,8.68,4.36c4.12,0.83,8.86,0.87,12.87-0.02 c2.06-0.46,3.91-1.16,5.36-2.12c3.32-2.21,2.99-4.26,2.49-7.39c-0.06-0.4-0.13-0.83-0.23-1.52L30.39,57.77L30.39,57.77z M2.59,31.46L2.59,31.46L2.59,31.46L2.59,31.46L2.59,31.46L2.59,31.46z M50.39,83.23c-1.78-5.82-2.95-16.57-3.44-19.03 c-0.01-0.06-0.02-0.11-0.03-0.17l-1.16,0.31l1.16-0.31c-0.67-2.49-0.11-4.3,0.93-5.27c0.38-0.35,0.82-0.6,1.28-0.71 c0.46-0.12,0.94-0.12,1.39,0.01c1.15,0.33,2.22,1.47,2.65,3.6c0.1,0.49,0.36,1.78,0.65,3c0.27,1.14,0.59,2.27,0.89,2.86 c0.09,0.22,0.25,0.4,0.44,0.53c0,0,0,0,0,0l1.05,0.14l2.86-3.8c4.89-7.41,9.76-14.66,14.67-22.09c0.44-0.66,1.11-1.09,1.83-1.23 c0.73-0.15,1.51-0.02,2.17,0.42c0.66,0.44,1.09,1.11,1.23,1.83c0.15,0.73,0.02,1.51-0.42,2.17L69.02,59.9l2.08,1.37l12.59-19.05 c0.44-0.66,1.11-1.09,1.83-1.23c0.73-0.15,1.51-0.02,2.17,0.41c0.66,0.44,1.09,1.11,1.23,1.83c0.15,0.73,0.02,1.51-0.42,2.17 L75.93,64.46l2.13,1.4l9.56-14.47c0.44-0.66,1.11-1.09,1.83-1.23c0.73-0.15,1.51-0.02,2.17,0.42c0.66,0.44,1.09,1.11,1.23,1.83 c0.15,0.73,0.02,1.51-0.42,2.17l-9.56,14.47l2.01,1.33l6.32-9.57c0.44-0.66,1.11-1.09,1.83-1.23c0.73-0.15,1.51-0.02,2.17,0.42 c0.66,0.44,1.09,1.11,1.23,1.84c0.15,0.73,0.02,1.51-0.42,2.17l-6.32,9.57l-0.98,1.49l-3.98,6.02c-0.04,0.07-0.09,0.14-0.13,0.21 l-5.48,8.29c-1.47,2.23-6.4,4.71-8.81,6.23c-0.2,0.12-0.34,0.3-0.44,0.5l0,0l-10.67,23.15c-0.28,0.25-0.61,0.45-0.97,0.61 c-2.26,0.99-5.88,0.45-9.66-1.03c-3.91-1.53-7.92-4.06-10.82-6.98c-1.48-1.5-2.66-3.09-3.36-4.68c-1.6-3.65-0.21-5.2,1.9-7.57 c0.27-0.31,0.56-0.62,1.02-1.16L50.39,83.23L50.39,83.23z M88.01,76.14L88.01,76.14L88.01,76.14L88.01,76.14L88.01,76.14 L88.01,76.14z"/></g></svg>
