<svg width="19" height="29" viewBox="0 0 19 29" fill="none" xmlns="http://www.w3.org/2000/svg">
<path d="M3.15733 9.616L7.43064 6.512C7.91037 6.16093 8.49384 5.98068 9.08797 6C9.81264 6.01807 10.5137 6.26148 11.0937 6.69637C11.6736 7.13128 12.1037 7.73607 12.324 8.42667C12.572 9.204 12.7986 9.72933 13.004 10.0027C13.6244 10.8304 14.4292 11.5021 15.3545 11.9645C16.2798 12.4271 17.3002 12.6673 18.3346 12.6667V15.3333C16.9577 15.3348 15.5976 15.0311 14.3521 14.4439C13.1066 13.8567 12.0069 13.0005 11.132 11.9373L10.2026 17.2107L12.9506 19.5173L15.9146 27.6613L13.408 28.5733L10.688 21.1013L6.168 17.308C5.79707 17.0085 5.51323 16.6149 5.34603 16.1685C5.17883 15.722 5.13439 15.2388 5.21733 14.7693L5.896 10.9227L4.99333 11.5787L2.15733 15.4827L0 13.9147L3.13467 9.6L3.15733 9.616ZM11.0013 5.33333C10.2941 5.33333 9.61584 5.05239 9.11571 4.55228C8.61557 4.05219 8.33464 3.37391 8.33464 2.66667C8.33464 1.95943 8.61557 1.28115 9.11571 0.781053C9.61584 0.280947 10.2941 0 11.0013 0C11.7086 0 12.3869 0.280947 12.8869 0.781053C13.387 1.28115 13.668 1.95943 13.668 2.66667C13.668 3.37391 13.387 4.05219 12.8869 4.55228C12.3869 5.05239 11.7086 5.33333 11.0013 5.33333ZM7.03864 22.908L2.75333 28.0147L0.710667 26.3013L4.67867 21.5733L5.67333 18.6667L8.06131 20.6667L7.03864 22.908Z" fill="white"/>
</svg>
