<svg width="32" height="32" viewBox="0 0 32 32" fill="none" xmlns="http://www.w3.org/2000/svg">
<path d="M16.0413 10.7778C18.5194 10.7778 20.5356 8.76176 20.5356 6.28359C20.5356 3.80513 18.5194 1.78906 16.0413 1.78906C13.5632 1.78906 11.5469 3.80513 11.5469 6.28359C11.5469 8.76176 13.5629 10.7778 16.0413 10.7778Z" fill="white"/>
<path d="M24.4284 28.0616L21.5489 17.2237C20.878 14.6986 18.5763 12.9351 15.9515 12.9351C13.3268 12.9351 11.0248 14.6986 10.3539 17.2237L7.47463 28.0616C7.3266 28.6183 7.44428 29.1992 7.79732 29.6553C8.15036 30.1114 8.68464 30.3733 9.2633 30.3733H22.6395C23.2181 30.3733 23.7524 30.1114 24.1054 29.6553C24.4585 29.1992 24.5762 28.6183 24.4284 28.0616Z" fill="white"/>
</svg>
