<svg width="66" height="66" viewBox="0 0 66 66" fill="none" xmlns="http://www.w3.org/2000/svg">
<g filter="url(#filter0_d_3000_721)">
<rect x="12" y="12" width="42" height="42" rx="21" fill="#0487A5" fill-opacity="0.3" shape-rendering="crispEdges"/>
<path fill-rule="evenodd" clip-rule="evenodd" d="M39.75 29C39.75 27.481 38.519 26.25 37 26.25H29C27.481 26.25 26.25 27.481 26.25 29V37C26.25 38.519 27.481 39.75 29 39.75H37C38.519 39.75 39.75 38.519 39.75 37V29ZM35 31V35C35 35.414 35.336 35.75 35.75 35.75C36.164 35.75 36.5 35.414 36.5 35V31C36.5 30.586 36.164 30.25 35.75 30.25C35.336 30.25 35 30.586 35 31ZM34 35V32C34 31.034 33.217 30.25 32.25 30.25H31.25C30.283 30.25 29.5 31.034 29.5 32V35C29.5 35.414 29.836 35.75 30.25 35.75C30.664 35.75 31 35.414 31 35V34.25H32.5V35C32.5 35.414 32.836 35.75 33.25 35.75C33.664 35.75 34 35.414 34 35ZM31 32.75H32.5V32C32.5 31.862 32.388 31.75 32.25 31.75H31.25C31.112 31.75 31 31.862 31 32V32.75Z" fill="#00ADD4"/>
<path fill-rule="evenodd" clip-rule="evenodd" d="M39 33.75H43C43.414 33.75 43.75 33.414 43.75 33C43.75 32.586 43.414 32.25 43 32.25H39C38.586 32.25 38.25 32.586 38.25 33C38.25 33.414 38.586 33.75 39 33.75Z" fill="#00ADD4"/>
<path fill-rule="evenodd" clip-rule="evenodd" d="M33.75 27V23C33.75 22.586 33.414 22.25 33 22.25C32.586 22.25 32.25 22.586 32.25 23V27C32.25 27.414 32.586 27.75 33 27.75C33.414 27.75 33.75 27.414 33.75 27Z" fill="#00ADD4"/>
<path fill-rule="evenodd" clip-rule="evenodd" d="M32.25 39V43C32.25 43.414 32.586 43.75 33 43.75C33.414 43.75 33.75 43.414 33.75 43V39C33.75 38.586 33.414 38.25 33 38.25C32.586 38.25 32.25 38.586 32.25 39Z" fill="#00ADD4"/>
<path fill-rule="evenodd" clip-rule="evenodd" d="M27 32.25H23C22.586 32.25 22.25 32.586 22.25 33C22.25 33.414 22.586 33.75 23 33.75H27C27.414 33.75 27.75 33.414 27.75 33C27.75 32.586 27.414 32.25 27 32.25Z" fill="#00ADD4"/>
<path fill-rule="evenodd" clip-rule="evenodd" d="M39 30.75H41.5C41.914 30.75 42.25 30.414 42.25 30C42.25 29.586 41.914 29.25 41.5 29.25H39C38.586 29.25 38.25 29.586 38.25 30C38.25 30.414 38.586 30.75 39 30.75Z" fill="#00ADD4"/>
<path fill-rule="evenodd" clip-rule="evenodd" d="M30.75 27V24.5C30.75 24.086 30.414 23.75 30 23.75C29.586 23.75 29.25 24.086 29.25 24.5V27C29.25 27.414 29.586 27.75 30 27.75C30.414 27.75 30.75 27.414 30.75 27Z" fill="#00ADD4"/>
<path fill-rule="evenodd" clip-rule="evenodd" d="M29.25 39V41.5C29.25 41.914 29.586 42.25 30 42.25C30.414 42.25 30.75 41.914 30.75 41.5V39C30.75 38.586 30.414 38.25 30 38.25C29.586 38.25 29.25 38.586 29.25 39Z" fill="#00ADD4"/>
<path fill-rule="evenodd" clip-rule="evenodd" d="M27 29.25H24.5C24.086 29.25 23.75 29.586 23.75 30C23.75 30.414 24.086 30.75 24.5 30.75H27C27.414 30.75 27.75 30.414 27.75 30C27.75 29.586 27.414 29.25 27 29.25Z" fill="#00ADD4"/>
<path fill-rule="evenodd" clip-rule="evenodd" d="M39 36.75H41.5C41.914 36.75 42.25 36.414 42.25 36C42.25 35.586 41.914 35.25 41.5 35.25H39C38.586 35.25 38.25 35.586 38.25 36C38.25 36.414 38.586 36.75 39 36.75Z" fill="#00ADD4"/>
<path fill-rule="evenodd" clip-rule="evenodd" d="M36.75 27V24.5C36.75 24.086 36.414 23.75 36 23.75C35.586 23.75 35.25 24.086 35.25 24.5V27C35.25 27.414 35.586 27.75 36 27.75C36.414 27.75 36.75 27.414 36.75 27Z" fill="#00ADD4"/>
<path fill-rule="evenodd" clip-rule="evenodd" d="M35.25 39V41.5C35.25 41.914 35.586 42.25 36 42.25C36.414 42.25 36.75 41.914 36.75 41.5V39C36.75 38.586 36.414 38.25 36 38.25C35.586 38.25 35.25 38.586 35.25 39Z" fill="#00ADD4"/>
<path fill-rule="evenodd" clip-rule="evenodd" d="M27 35.25H24.5C24.086 35.25 23.75 35.586 23.75 36C23.75 36.414 24.086 36.75 24.5 36.75H27C27.414 36.75 27.75 36.414 27.75 36C27.75 35.586 27.414 35.25 27 35.25Z" fill="#00ADD4"/>
</g>
<defs>
<filter id="filter0_d_3000_721" x="0" y="0" width="66" height="66" filterUnits="userSpaceOnUse" color-interpolation-filters="sRGB">
<feFlood flood-opacity="0" result="BackgroundImageFix"/>
<feColorMatrix in="SourceAlpha" type="matrix" values="0 0 0 0 0 0 0 0 0 0 0 0 0 0 0 0 0 0 127 0" result="hardAlpha"/>
<feOffset/>
<feGaussianBlur stdDeviation="6"/>
<feComposite in2="hardAlpha" operator="out"/>
<feColorMatrix type="matrix" values="0 0 0 0 0.027451 0 0 0 0 0.709804 0 0 0 0 1 0 0 0 0.25 0"/>
<feBlend mode="normal" in2="BackgroundImageFix" result="effect1_dropShadow_3000_721"/>
<feBlend mode="normal" in="SourceGraphic" in2="effect1_dropShadow_3000_721" result="shape"/>
</filter>
</defs>
</svg>
