<svg width="32" height="32" viewBox="0 0 32 32" fill="none" xmlns="http://www.w3.org/2000/svg">
<g clip-path="url(#clip0_3000_482)">
<path d="M5.33325 12C7.54239 12 9.33325 10.2091 9.33325 8C9.33325 5.79086 7.54239 4 5.33325 4C3.12411 4 1.33325 5.79086 1.33325 8C1.33325 10.2091 3.12411 12 5.33325 12Z" fill="white"/>
<path d="M9.72 14.76C8.378 15.5975 7.27118 16.7626 6.50376 18.1459C5.73634 19.5291 5.33356 21.0849 5.33333 22.6667H2.66667C1.96007 22.6646 1.28302 22.383 0.78338 21.8833C0.28374 21.3837 0.0021103 20.7066 0 20L0 17.3334C0.00316545 16.2735 0.425609 15.2579 1.17507 14.5084C1.92453 13.759 2.94011 13.3365 4 13.3334H6.66667C7.24876 13.3347 7.82355 13.463 8.35092 13.7094C8.87829 13.9559 9.34552 14.3144 9.72 14.76Z" fill="white"/>
<path d="M26.6667 12C28.8759 12 30.6667 10.2091 30.6667 8C30.6667 5.79086 28.8759 4 26.6667 4C24.4576 4 22.6667 5.79086 22.6667 8C22.6667 10.2091 24.4576 12 26.6667 12Z" fill="white"/>
<path d="M32 17.3334V20C31.9979 20.7066 31.7163 21.3837 31.2167 21.8833C30.717 22.383 30.04 22.6646 29.3334 22.6667H26.6667C26.6665 21.0849 26.2637 19.5291 25.4963 18.1459C24.7288 16.7626 23.622 15.5975 22.28 14.76C22.6545 14.3144 23.1217 13.9559 23.6491 13.7094C24.1765 13.463 24.7513 13.3347 25.3334 13.3334H28C29.0599 13.3365 30.0755 13.759 30.825 14.5084C31.5744 15.2579 31.9969 16.2735 32 17.3334Z" fill="white"/>
<path d="M16.0001 14.6667C18.9456 14.6667 21.3334 12.2789 21.3334 9.33333C21.3334 6.38781 18.9456 4 16.0001 4C13.0546 4 10.6667 6.38781 10.6667 9.33333C10.6667 12.2789 13.0546 14.6667 16.0001 14.6667Z" fill="white"/>
<path d="M24 22.6667V24C23.9968 25.0599 23.5744 26.0755 22.8249 26.8249C22.0755 27.5744 21.0599 27.9968 20 28H12C10.9401 27.9968 9.92453 27.5744 9.17507 26.8249C8.42561 26.0755 8.00317 25.0599 8 24V22.6667C8 20.8986 8.70238 19.2029 9.95262 17.9526C11.2029 16.7024 12.8986 16 14.6667 16H17.3333C19.1014 16 20.7971 16.7024 22.0474 17.9526C23.2976 19.2029 24 20.8986 24 22.6667Z" fill="white"/>
</g>
<defs>
<clipPath id="clip0_3000_482">
<rect width="32" height="32" fill="white"/>
</clipPath>
</defs>
</svg>
