<svg width="66" height="66" viewBox="0 0 66 66" fill="none" xmlns="http://www.w3.org/2000/svg">
<g filter="url(#filter0_d_3000_1138)">
<path d="M12 33C12 21.402 21.402 12 33 12C44.598 12 54 21.402 54 33C54 44.598 44.598 54 33 54C21.402 54 12 44.598 12 33Z" fill="#07B5FF" fill-opacity="0.3" shape-rendering="crispEdges"/>
<path d="M39.016 30.4479V27.616C39.016 24.3 36.32 21.6 33 21.6C29.684 21.6 26.9839 24.3 26.9839 27.616V30.4479C25.5959 30.5639 24.5039 31.7359 24.5039 33.1518V36.5279C24.5039 40.8679 28.0319 44.4 32.3719 44.4H33.6278C37.9678 44.4 41.4958 40.8679 41.4958 36.5279V33.1518C41.4958 31.7358 40.404 30.5639 39.016 30.4479ZM29.588 27.616C29.775 23.095 36.2251 23.096 36.4119 27.616V30.4361H29.588L29.588 27.616ZM32.048 37.7322C30.644 36.8162 31.329 34.5772 33 34.592C34.671 34.578 35.357 36.8151 33.952 37.7322C33.844 37.8042 33.776 37.9322 33.776 38.0642V39.4682C33.75 40.4902 32.251 40.4922 32.224 39.4682V38.0642C32.224 37.9322 32.156 37.8042 32.048 37.7322Z" fill="#00D9FF"/>
</g>
<defs>
<filter id="filter0_d_3000_1138" x="0" y="0" width="66" height="66" filterUnits="userSpaceOnUse" color-interpolation-filters="sRGB">
<feFlood flood-opacity="0" result="BackgroundImageFix"/>
<feColorMatrix in="SourceAlpha" type="matrix" values="0 0 0 0 0 0 0 0 0 0 0 0 0 0 0 0 0 0 127 0" result="hardAlpha"/>
<feOffset/>
<feGaussianBlur stdDeviation="6"/>
<feComposite in2="hardAlpha" operator="out"/>
<feColorMatrix type="matrix" values="0 0 0 0 0.027451 0 0 0 0 0.709804 0 0 0 0 1 0 0 0 0.25 0"/>
<feBlend mode="normal" in2="BackgroundImageFix" result="effect1_dropShadow_3000_1138"/>
<feBlend mode="normal" in="SourceGraphic" in2="effect1_dropShadow_3000_1138" result="shape"/>
</filter>
</defs>
</svg>
