<svg width="29" height="26" viewBox="0 0 29 26" fill="none" xmlns="http://www.w3.org/2000/svg">
<path d="M27.3968 10.8126L15.6376 0.574396C15.2112 0.204192 14.6655 0.00024515 14.1008 2.20865e-07C13.5361 -0.000244708 12.9902 0.203229 12.5634 0.573063L0.80821 10.8075C0.448397 11.1177 0.192055 11.5305 0.0735803 11.9905C-0.0448943 12.4505 -0.019834 12.9358 0.145399 13.3812C0.310632 13.8266 0.608132 14.2108 0.997983 14.4823C1.38783 14.7537 1.85138 14.8995 2.32644 14.8999H3.76654V23.2332C3.76729 23.8519 4.01336 24.4449 4.45079 24.8823C4.88821 25.3198 5.48127 25.5658 6.09988 25.5666H9.43321C10.0518 25.5658 10.6449 25.3198 11.0823 24.8823C11.5197 24.4449 11.7658 23.8519 11.7665 23.2332V19.8999C11.7669 19.5735 11.8356 19.2509 11.9681 18.9526C12.1006 18.6544 12.2941 18.3872 12.5361 18.1682C12.7786 17.9473 13.0652 17.7806 13.377 17.6789C13.6888 17.5772 14.0186 17.5429 14.3447 17.5783C14.9398 17.6701 15.4807 17.9765 15.8654 18.4397C16.2502 18.9028 16.4521 19.4908 16.4332 20.0926V23.2333C16.434 23.8519 16.68 24.4449 17.1175 24.8824C17.5549 25.3198 18.1479 25.5658 18.7665 25.5666H22.0999C22.7185 25.5658 23.3115 25.3198 23.749 24.8824C24.1864 24.4449 24.4325 23.8519 24.4332 23.2333V14.8999H25.8733C26.3477 14.8995 26.8107 14.7542 27.2003 14.4835C27.5898 14.2127 27.8874 13.8294 28.0531 13.3848C28.2188 12.9403 28.2447 12.4557 28.1274 11.996C28.0101 11.5363 27.7552 11.1234 27.3968 10.8126Z" fill="white"/>
</svg>
