<svg width="32" height="32" viewBox="0 0 32 32" fill="none" xmlns="http://www.w3.org/2000/svg">
<path d="M30.8531 16.4715C30.5536 17.5286 29.9548 18.4447 29.1682 19.0502C28.54 19.5346 27.8267 19.7879 27.1251 19.7879C26.861 19.7879 26.6026 19.7526 26.3473 19.6804C25.4197 19.4151 24.6682 18.6783 24.2866 17.6585C23.9373 16.7289 23.9138 15.6351 24.2133 14.5777C24.5156 13.5207 25.1144 12.6046 25.8981 11.999C26.7612 11.3339 27.7886 11.104 28.7191 11.3688C29.6467 11.6342 30.4011 12.3709 30.7827 13.3907C31.129 14.3204 31.1554 15.4141 30.8531 16.4715ZM11.2269 13.7997C12.3306 13.7997 13.3845 13.1853 14.1183 12.1133C14.7846 11.1414 15.1515 9.86831 15.1515 8.528C15.1515 7.1865 14.7846 5.91343 14.1183 4.9415C13.3844 3.86981 12.3306 3.25537 11.2269 3.25537C10.1202 3.25537 9.06646 3.86975 8.33259 4.9415C7.66921 5.91343 7.30227 7.1865 7.30227 8.528C7.30227 9.86831 7.66921 11.1414 8.33259 12.1133C9.06646 13.1853 10.1203 13.7997 11.2269 13.7997ZM20.7729 13.7997C21.8796 13.7997 22.9333 13.1853 23.6672 12.1133C24.3306 11.1414 24.6975 9.86831 24.6975 8.528C24.6975 7.1865 24.3306 5.91343 23.6672 4.9415C22.9333 3.86981 21.8795 3.25537 20.7729 3.25537C19.6691 3.25537 18.6153 3.86975 17.8815 4.9415C17.2152 5.91343 16.8483 7.1865 16.8483 8.528C16.8483 9.86831 17.2152 11.1414 17.8815 12.1133C18.6153 13.1853 19.6691 13.7997 20.7729 13.7997ZM7.78659 14.5784C7.48427 13.5208 6.88546 12.6047 6.10165 11.9991C5.23865 11.3339 4.21127 11.1041 3.28071 11.3689C2.35021 11.6342 1.59871 12.371 1.21709 13.3908C0.870712 14.3204 0.844337 15.4142 1.14665 16.4716C1.44609 17.5286 2.0449 18.4447 2.83152 19.0503C3.45971 19.5346 4.17302 19.7879 4.87459 19.7879C5.13584 19.7879 5.39709 19.7527 5.64952 19.6805C6.58002 19.4151 7.33152 18.6784 7.71309 17.6586C8.06252 16.7289 8.08602 15.6352 7.78659 14.5784ZM21.7591 17.1561C20.1505 15.4652 18.1075 14.5347 15.9999 14.5347C13.8923 14.5347 11.8463 15.4652 10.2435 17.1561C8.71121 18.7685 7.64277 21.0059 7.23177 23.4572C6.97052 25.0209 7.44602 26.5259 8.54096 27.5859C9.6799 28.689 11.1681 29.0239 12.6241 28.5061C13.7015 28.1216 14.8375 27.9267 15.9999 27.9267C17.1623 27.9267 18.2983 28.1216 19.3756 28.5061C19.8248 28.6658 20.2768 28.7447 20.7201 28.7447C21.7151 28.7447 22.6692 28.3491 23.4558 27.5859C24.5537 26.5259 25.0292 25.0209 24.768 23.4572C24.357 21.0058 23.2885 18.7684 21.7591 17.1561Z" fill="white"/>
</svg>
