<svg width="24" height="29" viewBox="0 0 24 29" fill="none" xmlns="http://www.w3.org/2000/svg">
<path d="M9.00344 17.4853V18.0153C9.00344 18.8109 9.31951 19.574 9.88212 20.1366C10.4447 20.6992 11.2078 21.0153 12.0034 21.0153C12.7991 21.0153 13.5621 20.6992 14.1248 20.1366C14.6874 19.574 15.0034 18.8109 15.0034 18.0153V17.4853C17.0051 16.7776 18.6921 15.3851 19.7663 13.5538C20.8406 11.7226 21.2328 9.57057 20.8738 7.47808C20.5148 5.3856 19.4276 3.48739 17.8044 2.11897C16.1812 0.750539 14.1265 0 12.0034 0C9.88038 0 7.82566 0.750539 6.20246 2.11897C4.57925 3.48739 3.49206 5.3856 3.13305 7.47808C2.77404 9.57057 3.16631 11.7226 4.24054 13.5538C5.31477 15.3851 7.0018 16.7776 9.00344 17.4853ZM11.0034 13.0153C11.0034 12.7501 11.1088 12.4957 11.2963 12.3082C11.4839 12.1206 11.7382 12.0153 12.0034 12.0153C12.2012 12.0153 12.3946 12.0739 12.559 12.1838C12.7235 12.2937 12.8516 12.4499 12.9273 12.6326C13.003 12.8153 13.0228 13.0164 12.9842 13.2104C12.9456 13.4044 12.8504 13.5825 12.7105 13.7224C12.5707 13.8622 12.3925 13.9575 12.1985 13.9961C12.0045 14.0347 11.8035 14.0148 11.6208 13.9392C11.438 13.8635 11.2818 13.7353 11.172 13.5709C11.0621 13.4064 11.0034 13.2131 11.0034 13.0153ZM12.0034 4.01528C12.7119 4.01423 13.3979 4.26394 13.9399 4.7202C14.4819 5.17646 14.845 5.80982 14.9647 6.5081C15.0845 7.20639 14.9533 7.92452 14.5943 8.53533C14.2353 9.14613 13.6718 9.61018 13.0034 9.84528V10.0153C13.0034 10.2805 12.8981 10.5349 12.7105 10.7224C12.523 10.9099 12.2687 11.0153 12.0034 11.0153C11.7382 11.0153 11.4839 10.9099 11.2963 10.7224C11.1088 10.5349 11.0034 10.2805 11.0034 10.0153V9.01528C11.0034 8.75006 11.1088 8.49571 11.2963 8.30818C11.4839 8.12064 11.7382 8.01528 12.0034 8.01528C12.2012 8.01528 12.3946 7.95663 12.559 7.84675C12.7235 7.73687 12.8516 7.58069 12.9273 7.39796C13.003 7.21524 13.0228 7.01417 12.9842 6.82019C12.9456 6.62621 12.8504 6.44803 12.7105 6.30817C12.5707 6.16832 12.3925 6.07308 12.1985 6.0345C12.0045 5.99591 11.8035 6.01571 11.6208 6.0914C11.438 6.16709 11.2818 6.29526 11.172 6.45971C11.0621 6.62416 11.0034 6.8175 11.0034 7.01528C11.0034 7.2805 10.8981 7.53485 10.7105 7.72239C10.523 7.90992 10.2687 8.01528 10.0034 8.01528C9.73822 8.01528 9.48387 7.90992 9.29633 7.72239C9.10879 7.53485 9.00344 7.2805 9.00344 7.01528C9.00344 6.21963 9.31951 5.45657 9.88212 4.89396C10.4447 4.33135 11.2078 4.01528 12.0034 4.01528Z" fill="white"/>
<path d="M23.2635 23.4653C23.1503 22.8071 22.8741 22.1878 22.4601 21.6638C22.0461 21.1398 21.5076 20.7277 20.8935 20.4653L16.8935 18.7653C16.6965 19.9303 16.0933 20.9878 15.1908 21.7505C14.2884 22.5131 13.145 22.9315 11.9635 22.9315C10.782 22.9315 9.63859 22.5131 8.73615 21.7505C7.83371 20.9878 7.2305 19.9303 7.03348 18.7653L3.03349 20.4553C2.41942 20.7177 1.88083 21.1298 1.46686 21.6538C1.05289 22.1778 0.776697 22.7971 0.663485 23.4553L0.00348486 27.8553C-0.00116162 27.9085 -0.00116162 27.962 0.00348486 28.0153H5.00348V26.0153C5.00348 25.75 5.10884 25.4957 5.29638 25.3082C5.48391 25.1206 5.73827 25.0153 6.00348 25.0153C6.2687 25.0153 6.52306 25.1206 6.71059 25.3082C6.89813 25.4957 7.00348 25.75 7.00348 26.0153V28.0153H17.0035V26.0153C17.0035 25.75 17.1088 25.4957 17.2964 25.3082C17.4839 25.1206 17.7383 25.0153 18.0035 25.0153C18.2687 25.0153 18.5231 25.1206 18.7106 25.3082C18.8981 25.4957 19.0035 25.75 19.0035 26.0153V28.0153H24.0035C24.0081 27.962 24.0081 27.9085 24.0035 27.8553L23.2635 23.4653Z" fill="white"/>
</svg>
