<svg width="66" height="66" viewBox="0 0 66 66" fill="none" xmlns="http://www.w3.org/2000/svg">
<g filter="url(#filter0_d_3000_498)">
<rect x="12" y="12" width="42" height="42" rx="21" fill="#07B5FF" fill-opacity="0.3" shape-rendering="crispEdges"/>
<path fill-rule="evenodd" clip-rule="evenodd" d="M32.5251 22.0572L25.5251 23.7683C24.6298 23.9872 24 24.7895 24 25.7111V34.2131C24 37.5788 25.9174 40.6505 28.9411 42.1288L32.5608 43.8984C32.6994 43.9661 32.8497 44 33 44C33.1503 44 33.3006 43.9661 33.4392 43.8984L37.0589 42.1288C40.0826 40.6505 42 37.5788 42 34.2131V25.7111C42 24.7895 41.3702 23.9872 40.4749 23.7683L33.4749 22.0572C33.3189 22.0191 33.1595 22 33 22C32.8405 22 32.6811 22.0191 32.5251 22.0572ZM37.7071 30.7071C38.0976 30.3166 38.0976 29.6834 37.7071 29.2929C37.3166 28.9024 36.6834 28.9024 36.2929 29.2929L32 33.5857L29.7071 31.2929C29.3166 30.9024 28.6834 30.9024 28.2929 31.2929C27.9024 31.6834 27.9024 32.3166 28.2929 32.7071L31.2929 35.7071C31.6834 36.0976 32.3166 36.0976 32.7071 35.7071L37.7071 30.7071Z" fill="#00D9FF"/>
</g>
<defs>
<filter id="filter0_d_3000_498" x="0" y="0" width="66" height="66" filterUnits="userSpaceOnUse" color-interpolation-filters="sRGB">
<feFlood flood-opacity="0" result="BackgroundImageFix"/>
<feColorMatrix in="SourceAlpha" type="matrix" values="0 0 0 0 0 0 0 0 0 0 0 0 0 0 0 0 0 0 127 0" result="hardAlpha"/>
<feOffset/>
<feGaussianBlur stdDeviation="6"/>
<feComposite in2="hardAlpha" operator="out"/>
<feColorMatrix type="matrix" values="0 0 0 0 0.027451 0 0 0 0 0.709804 0 0 0 0 1 0 0 0 0.25 0"/>
<feBlend mode="normal" in2="BackgroundImageFix" result="effect1_dropShadow_3000_498"/>
<feBlend mode="normal" in="SourceGraphic" in2="effect1_dropShadow_3000_498" result="shape"/>
</filter>
</defs>
</svg>
