<svg width="66" height="66" viewBox="0 0 66 66" fill="none" xmlns="http://www.w3.org/2000/svg">
<g filter="url(#filter0_d_27_677)">
<rect x="12" y="12" width="42" height="42" rx="21" fill="#979797" fill-opacity="0.3" shape-rendering="crispEdges"/>
<path d="M39.0162 30.4479V27.616C39.0162 24.3 36.3203 21.6 33.0002 21.6C29.6842 21.6 26.9842 24.3 26.9842 27.616V30.4479C25.5962 30.5639 24.5042 31.7359 24.5042 33.1518V36.5279C24.5042 40.8679 28.0321 44.4 32.3721 44.4H33.6281C37.9681 44.4 41.496 40.8679 41.496 36.5279V33.1518C41.496 31.7358 40.4042 30.5639 39.0162 30.4479ZM29.5882 27.616C29.7752 23.095 36.2253 23.096 36.4122 27.616V30.4361H29.5882L29.5882 27.616ZM32.0482 37.7322C30.6442 36.8162 31.3292 34.5772 33.0002 34.592C34.6712 34.578 35.3573 36.8151 33.9523 37.7322C33.8443 37.8042 33.7763 37.9322 33.7763 38.0642V39.4682C33.7503 40.4902 32.2513 40.4922 32.2243 39.4682V38.0642C32.2243 37.9322 32.1562 37.8042 32.0482 37.7322Z" fill="#D8D8D8"/>
</g>
<defs>
<filter id="filter0_d_27_677" x="0" y="0" width="66" height="66" filterUnits="userSpaceOnUse" color-interpolation-filters="sRGB">
<feFlood flood-opacity="0" result="BackgroundImageFix"/>
<feColorMatrix in="SourceAlpha" type="matrix" values="0 0 0 0 0 0 0 0 0 0 0 0 0 0 0 0 0 0 127 0" result="hardAlpha"/>
<feOffset/>
<feGaussianBlur stdDeviation="6"/>
<feComposite in2="hardAlpha" operator="out"/>
<feColorMatrix type="matrix" values="0 0 0 0 0.847059 0 0 0 0 0.847059 0 0 0 0 0.847059 0 0 0 0.25 0"/>
<feBlend mode="normal" in2="BackgroundImageFix" result="effect1_dropShadow_27_677"/>
<feBlend mode="normal" in="SourceGraphic" in2="effect1_dropShadow_27_677" result="shape"/>
</filter>
</defs>
</svg>
