<svg width="32" height="32" viewBox="0 0 32 32" fill="none" xmlns="http://www.w3.org/2000/svg">
<path fill-rule="evenodd" clip-rule="evenodd" d="M21.3335 15.8674C21.3335 14.342 20.8229 12.9398 19.9626 11.817C19.5147 11.2325 19.6255 10.3956 20.2101 9.9477C20.7946 9.49983 21.6314 9.6106 22.0794 10.1951C23.2838 11.7671 24.0002 13.7355 24.0002 15.8674C24.0002 18.0892 23.2221 20.1331 21.9247 21.7359C21.4614 22.3083 20.6218 22.3967 20.0494 21.9334C19.4771 21.47 19.3886 20.6304 19.8519 20.0582C20.7791 18.9127 21.3335 17.4566 21.3335 15.8674Z" fill="white"/>
<path fill-rule="evenodd" clip-rule="evenodd" d="M10.6667 15.8674C10.6667 14.34 11.1786 12.9361 12.041 11.8126C12.4894 11.2284 12.3793 10.3914 11.7951 9.94307C11.211 9.49471 10.374 9.60479 9.92561 10.1889C8.71828 11.7619 8 13.7327 8 15.8674C8 18.0875 8.77689 20.1299 10.0725 21.7322C10.5355 22.3048 11.375 22.3936 11.9477 21.9306C12.5203 21.4676 12.6091 20.628 12.1461 20.0555C11.2202 18.9104 10.6667 17.4554 10.6667 15.8674Z" fill="white"/>
<path fill-rule="evenodd" clip-rule="evenodd" d="M13.3335 15.8671C13.3335 17.3399 14.5274 18.5337 16.0002 18.5337C17.473 18.5337 18.6668 17.3399 18.6668 15.8671C18.6668 14.3944 17.473 13.2004 16.0002 13.2004C14.5274 13.2004 13.3335 14.3944 13.3335 15.8671Z" fill="white"/>
<path fill-rule="evenodd" clip-rule="evenodd" d="M26.6668 15.8671C26.6668 12.891 25.5852 10.171 23.7919 8.07354C23.3134 7.51383 23.3791 6.67219 23.9388 6.19366C24.4986 5.71513 25.3402 5.78091 25.8187 6.34062C28.0094 8.90278 29.3335 12.232 29.3335 15.8671C29.3335 19.5858 27.9478 22.9841 25.6664 25.5688C25.1792 26.121 24.3366 26.1735 23.7846 25.6862C23.2324 25.1988 23.1799 24.3563 23.6672 23.8042C25.535 21.688 26.6668 18.9114 26.6668 15.8671Z" fill="white"/>
<path fill-rule="evenodd" clip-rule="evenodd" d="M5.33341 15.867C5.33341 12.8911 6.41493 10.1713 8.20801 8.07385C8.68652 7.51413 8.62068 6.67249 8.06096 6.19398C7.50125 5.71548 6.6596 5.7813 6.18109 6.34102C3.99073 8.90312 2.66675 12.2321 2.66675 15.867C2.66675 19.5807 4.04873 22.9749 6.32455 25.5583C6.81131 26.1109 7.65384 26.1642 8.2064 25.6774C8.75895 25.1906 8.81228 24.3481 8.32552 23.7955C6.46221 21.6805 5.33341 18.9071 5.33341 15.867Z" fill="white"/>
</svg>
