<svg width="31" height="32" viewBox="0 0 31 32" fill="none" xmlns="http://www.w3.org/2000/svg">
<path d="M15.4999 9.76445C18.1918 9.76445 20.3821 7.57417 20.3821 4.88223C20.3821 2.19028 18.1918 0 15.4999 0C12.808 0 10.6177 2.19028 10.6177 4.88223C10.6177 7.57417 12.8076 9.76445 15.4999 9.76445Z" fill="white"/>
<path d="M22.7824 12.2758H8.21709C7.58697 12.2758 7.00487 12.5623 6.62075 13.0615C6.23632 13.5606 6.10818 14.1963 6.26906 14.8056L9.40467 26.6661C10.1352 29.4295 12.6416 31.3594 15.4997 31.3594C18.3579 31.3594 20.8643 29.4295 21.5948 26.6661L24.7304 14.8059C24.8913 14.1967 24.7635 13.5609 24.379 13.0615C23.9946 12.5623 23.4128 12.2758 22.7824 12.2758Z" fill="white"/>
</svg>
