<svg width="58" height="58" viewBox="0 0 58 58" fill="none" xmlns="http://www.w3.org/2000/svg">
<path d="M57.6035 25.3296L22.2598 4.92496C21.2449 4.34104 20.04 4.18327 18.9091 4.48625C17.7781 4.78922 16.8134 5.52821 16.2264 6.54125L12.1573 13.5887L9.44856 18.2799C8.8643 19.2951 8.70649 20.5005 9.00974 21.6319C9.31299 22.7633 10.0525 23.7282 11.0662 24.3151L23.1841 31.3109L21.2996 34.5244C21.0489 34.9498 20.6918 35.3025 20.2634 35.548C19.835 35.7934 19.3501 35.923 18.8563 35.9241H11.7812V30.532C11.7812 30.3216 11.6977 30.12 11.549 29.9712C11.4003 29.8225 11.1986 29.739 10.9883 29.739H6.68359V28.7158C6.68251 27.7848 6.31218 26.8922 5.65384 26.2339C4.9955 25.5755 4.10291 25.2052 3.17188 25.2041H0.792969C0.688818 25.2041 0.585677 25.2245 0.489442 25.2644C0.393208 25.3042 0.305768 25.3626 0.232122 25.4362C0.158477 25.5099 0.100069 25.5973 0.06024 25.6936C0.0204106 25.7898 -5.94362e-05 25.8929 1.29624e-07 25.9971V52.8751C-5.94362e-05 52.9793 0.0204106 53.0824 0.06024 53.1786C0.100069 53.2749 0.158477 53.3623 0.232122 53.4359C0.305768 53.5096 0.393208 53.568 0.489442 53.6078C0.585677 53.6477 0.688818 53.6681 0.792969 53.6681H3.17188C4.10291 53.667 4.9955 53.2967 5.65384 52.6383C6.31218 51.98 6.68251 51.0874 6.68359 50.1563V47.6374H10.9883C11.1986 47.6374 11.4003 47.5539 11.549 47.4052C11.6977 47.2565 11.7812 47.0548 11.7812 46.8445V42.9476H18.8563C20.5742 42.9439 22.2614 42.4931 23.7521 41.6394C25.2427 40.7857 26.4854 39.5585 27.3579 38.0788L29.2669 34.8235L35.9093 38.6583C36.578 39.0463 37.3373 39.2511 38.1105 39.2519C38.4992 39.2517 38.8861 39.2005 39.2615 39.0996C39.9827 38.9078 40.6432 38.5352 41.1805 38.0171C42.0493 38.4202 42.9954 38.6296 43.9531 38.6307C44.5401 38.6303 45.1245 38.5529 45.6913 38.4005C47.1371 38.0162 48.4102 37.1538 49.3032 35.9536L50.9272 36.8911C51.0174 36.9433 51.1169 36.9771 51.2202 36.9907C51.3235 37.0044 51.4285 36.9975 51.5291 36.9705C51.6297 36.9435 51.7241 36.897 51.8067 36.8335C51.8893 36.7701 51.9586 36.6909 52.0106 36.6007L57.8922 26.414C57.9444 26.3238 57.9784 26.2242 57.9922 26.121C58.0059 26.0177 57.9992 25.9127 57.9724 25.812C57.9456 25.7113 57.8992 25.6169 57.8359 25.5341C57.7726 25.4514 57.6937 25.3819 57.6035 25.3296ZM5.09766 50.1563C5.09718 50.667 4.89413 51.1565 4.53308 51.5176C4.17203 51.8786 3.68248 52.0817 3.17188 52.0821H1.58594V26.7901H3.17188C3.68248 26.7905 4.17203 26.9936 4.53308 27.3546C4.89413 27.7157 5.09718 28.2052 5.09766 28.7158V50.1563ZM10.1953 46.0515H6.68359V31.3249H10.1953V46.0515ZM25.9894 37.2763C25.2576 38.518 24.215 39.5478 22.9642 40.2642C21.7135 40.9807 20.2977 41.359 18.8563 41.3621H11.7812V37.5105H18.8563C19.6265 37.5089 20.3829 37.3067 21.0512 36.9239C21.7195 36.5411 22.2765 35.9909 22.6676 35.3274L24.5594 32.1048L27.8953 34.0305L25.9894 37.2763ZM36.7031 37.2849L11.8592 22.9417C11.2093 22.5655 10.7351 21.947 10.5408 21.2217C10.3464 20.4964 10.4477 19.7236 10.8224 19.0729L13.1334 15.0686L35.9015 28.2138L42.8819 32.2439L40.5705 36.2499L40.5674 36.2549C40.5071 36.3572 40.4403 36.4556 40.3675 36.5495V36.5526C39.9494 37.0983 39.3472 37.4733 38.6731 37.608C37.999 37.7427 37.2989 37.6279 36.7031 37.2849ZM45.284 36.8685C44.2453 37.1493 43.1441 37.0914 42.1406 36.7031L44.2581 33.0359L47.9252 35.1529C47.2497 35.9916 46.324 36.5927 45.283 36.8685H45.284ZM51.0364 35.1194L45.9084 32.1587L44.3609 31.2656L26.8535 21.1582L13.9272 13.6952L17.5998 7.33422C17.9761 6.68448 18.5947 6.21052 19.32 6.01633C20.0453 5.82214 20.818 5.92357 21.4686 6.29838L56.1236 26.307L51.0364 35.1194Z" fill="#8C8C8C"/>
<path d="M47.6479 30.8093C48.1097 31.0775 48.6341 31.219 49.1682 31.2194C49.4362 31.2192 49.7031 31.1838 49.962 31.1143C50.6435 30.9317 51.2407 30.5185 51.6517 29.9451C52.0627 29.3717 52.2622 28.6735 52.2161 27.9695C52.17 27.2654 51.8813 26.5992 51.3991 26.0842C50.9168 25.5692 50.271 25.2373 49.5715 25.1452C48.872 25.053 48.1622 25.2062 47.563 25.5787C46.9639 25.9512 46.5124 26.5199 46.2855 27.1879C46.0586 27.856 46.0704 28.582 46.3188 29.2424C46.5673 29.9027 47.037 30.4565 47.6479 30.8093ZM47.9057 27.4367C48.0017 27.2704 48.1296 27.1247 48.2821 27.008C48.4346 26.8914 48.6087 26.8061 48.7943 26.757C48.9185 26.7238 49.0464 26.7069 49.175 26.7067C49.4974 26.7068 49.8109 26.8132 50.0667 27.0096C50.3225 27.2059 50.5064 27.4812 50.5898 27.7927C50.6733 28.1042 50.6516 28.4346 50.5281 28.7325C50.4047 29.0304 50.1863 29.2793 49.907 29.4405C49.6277 29.6017 49.303 29.6662 48.9833 29.6241C48.6636 29.5819 48.3667 29.4354 48.1387 29.2074C47.9107 28.9793 47.7643 28.6824 47.7223 28.3626C47.6803 28.0429 47.7449 27.7182 47.9062 27.439L47.9057 27.4367Z" fill="#8C8C8C"/>
<path d="M20.6171 22.7786L14.1193 19.0262C14.0291 18.9734 13.9293 18.9388 13.8257 18.9247C13.7221 18.9105 13.6167 18.917 13.5156 18.9437C13.4145 18.9704 13.3197 19.0169 13.2366 19.0804C13.1535 19.1439 13.0838 19.2233 13.0315 19.3138C12.9792 19.4044 12.9454 19.5044 12.9319 19.6081C12.9184 19.7118 12.9256 19.8172 12.953 19.9181C12.9804 20.019 13.0275 20.1135 13.0916 20.1962C13.1556 20.2788 13.2354 20.348 13.3263 20.3997L19.826 24.1515C20.0073 24.2464 20.2184 24.2674 20.4149 24.2102C20.6114 24.153 20.7782 24.0221 20.8804 23.8447C20.9826 23.6674 21.0123 23.4574 20.9632 23.2587C20.9141 23.06 20.7901 22.888 20.6171 22.7786Z" fill="#8C8C8C"/>
</svg>
