<svg width="21" height="21" viewBox="0 0 21 21" fill="none" xmlns="http://www.w3.org/2000/svg">
<path fill-rule="evenodd" clip-rule="evenodd" d="M10.5038 1.31775C15.5771 1.31775 19.6914 5.43207 19.6914 10.5053C19.6914 15.5786 15.5771 19.6929 10.5038 19.6929C5.43054 19.6929 1.31622 15.5786 1.31622 10.5053C1.31622 5.43207 5.43054 1.31775 10.5038 1.31775ZM8.5959 13.4895L6.34655 11.2383C5.96334 10.8549 5.96326 10.2296 6.34655 9.84626C6.72992 9.46297 7.35798 9.46537 7.73856 9.84626L9.32434 11.4333L13.2692 7.4884C13.6526 7.10503 14.2779 7.10503 14.6612 7.4884C15.0446 7.87169 15.0441 8.49758 14.6612 8.88041L10.0192 13.5224C9.6364 13.9052 9.0105 13.9058 8.62721 13.5224C8.61644 13.5116 8.60605 13.5007 8.5959 13.4895Z" fill="#00A6FF"/>
</svg>
