<svg width="41" height="41" viewBox="0 0 41 41" fill="none" xmlns="http://www.w3.org/2000/svg">
<rect width="40.3497" height="40.3497" rx="16" fill="#FF0000"/>
<path d="M24.1432 15.6572C25.2662 16.7821 25.8969 18.3066 25.8969 19.8962C25.8969 21.4857 25.2662 23.0102 24.1432 24.1352M26.9712 12.8292C28.8441 14.7042 29.896 17.246 29.896 19.8962C29.896 22.5463 28.8441 25.0881 26.9712 26.9632M12.8212 26.9632C10.9483 25.0881 9.89631 22.5463 9.89631 19.8962C9.89631 17.246 10.9483 14.7042 12.8212 12.8292M15.6492 24.1352C14.5262 23.0102 13.8955 21.4857 13.8955 19.8962C13.8955 18.3066 14.5262 16.7821 15.6492 15.6572M21.8962 19.8962C21.8962 21.0007 21.0007 21.8962 19.8962 21.8962C18.7916 21.8962 17.8962 21.0007 17.8962 19.8962C17.8962 18.7916 18.7916 17.8962 19.8962 17.8962C21.0007 17.8962 21.8962 18.7916 21.8962 19.8962Z" stroke="white" stroke-width="1.33333" stroke-linecap="round" stroke-linejoin="round"/>
</svg>
