<svg width="24" height="24" viewBox="0 0 24 24" fill="none" xmlns="http://www.w3.org/2000/svg">
<path d="M18.0161 9.4479V6.61601C18.0161 3.30002 15.3202 0.599976 12.0001 0.599976C8.68409 0.599976 5.98404 3.30002 5.98404 6.61601V9.4479C4.59603 9.5639 3.50403 10.7359 3.50403 12.1518V15.5279C3.50403 19.8679 7.03198 23.4 11.372 23.4H12.628C16.968 23.4 20.4959 19.8679 20.4959 15.5279V12.1518C20.4959 10.7358 19.4041 9.56386 18.0161 9.4479ZM8.58809 6.61601C8.77509 2.09502 15.2252 2.09605 15.4121 6.61601V9.43612H8.58809L8.58809 6.61601ZM11.0481 16.7322C9.6441 15.8162 10.3291 13.5772 12.0001 13.592C13.6711 13.578 14.3571 15.8151 12.9521 16.7322C12.8441 16.8042 12.7761 16.9322 12.7761 17.0642V18.4682C12.7501 19.4902 11.2511 19.4922 11.2241 18.4682V17.0642C11.2241 16.9322 11.1561 16.8042 11.0481 16.7322Z" fill="#B6B6B6"/>
</svg>
