<svg width="236" height="68" viewBox="0 0 236 68" fill="none" xmlns="http://www.w3.org/2000/svg">
<g clip-path="url(#clip0_1_3)">
<path d="M123.324 51.2805L124.837 44.0569H157.241C163.585 43.552 165.168 38.1238 157.574 37.5206C150.535 36.9736 133.098 38.6988 128.072 33.8738C124.518 30.4653 125.962 24.1114 128.822 20.6889C133.473 15.1485 153.076 10.3375 160.559 8.5C172.068 5.70874 221.77 0.715342 233.557 0.0561012C234.07 0.0280484 235.792 -0.182348 236 0.392735C222.353 2.70709 172.401 8.61221 159.337 13.1848C154.353 14.9241 139.22 20.2681 136.472 24.1535C131.737 30.816 142.344 29.8201 145.884 30.0025C151.368 30.297 164.071 29.6378 168.389 31.8399C174.706 35.0941 172.137 44.9967 167.084 48.4612C165.626 49.4571 161.503 51.2665 159.809 51.2665H123.296H123.324V51.2805Z" fill="white"/>
<path d="M49.0215 51.2805H40.4139L37.7622 42.8226L15.7296 42.7665L14.7717 43.1031L9.57939 51.2665H0L18.8117 21.0396C21.4078 17.8837 24.2955 16.5512 28.3494 16.2847C32.7365 15.9901 39.8586 15.4992 42.0938 20.1139L48.9521 51.2805H49.0076H49.0215ZM20.1167 35.2484H36.1795L36.5405 34.5611C35.5548 32.6675 35.1105 25.1914 33.3474 24.3779C31.7647 23.6485 27.4193 23.8729 26.142 25.1353C25.1285 26.1312 21.3384 32.5974 20.5054 34.1683C20.325 34.533 19.9918 34.7434 20.1167 35.2484Z" fill="white"/>
<path d="M112.606 16.2846L112.218 17.3647C105.415 26.4959 100.236 38.8672 93.2671 47.6337C89.9213 51.8837 84.6596 52.8655 79.495 51.7574C75.1496 50.8317 74.6914 47.7459 73.8307 44.0709C71.6927 34.8837 70.1933 25.486 68.1664 16.2706H77.0793L82.9242 42.4158C84.1736 45.0107 86.1451 43.9868 87.3945 41.995L103.374 16.2566H112.62L112.592 16.2846H112.606Z" fill="white"/>
<path d="M65.5424 16.2847L59.3783 51.2805H50.9651L57.6152 16.2847H65.5424Z" fill="white"/>
<path d="M175.553 16.2847L173.762 24.1394H138.235C138.082 23.382 138.332 23.6205 138.651 23.4101C141.386 21.6568 154.325 16.2987 157.213 16.2987H175.567L175.553 16.2847Z" fill="white"/>
<path d="M124.282 16.2846L120.534 34.5891C119.312 34.014 118.201 33.1444 116.896 32.6955C116.008 32.387 113.134 32.0924 112.94 31.4332L115.827 16.2566H124.268V16.2846H124.282Z" fill="white"/>
<path d="M117.466 35.585C117.646 36.3705 117.341 36.104 117.049 36.3143C114.689 37.9695 111.773 38.8812 109.358 40.4942L109.719 34.9818C112.259 34.1964 115.05 34.4769 117.466 35.585Z" fill="#0487A5"/>
<path d="M120.714 44.085L113.911 39.6807L118.771 37.0578C120.825 38.8952 120.881 41.5181 120.714 44.1271V44.099V44.085Z" fill="#0487A5"/>
<path d="M107.414 44.7162L103.513 41.6163C104.318 38.8812 105.929 36.9175 108.372 35.5569L107.414 44.7162Z" fill="#0487A5"/>
<path d="M113.856 52.2063C111.537 52.7112 108.705 53.0198 106.762 51.4488L114.536 46.6939L113.828 52.2063H113.856Z" fill="#0487A5"/>
<path d="M103.207 43.4398L110.01 47.8441C108.997 48.3911 106.081 50.5792 105.151 50.1584C103.43 49.3729 102.916 45.1229 103.207 43.4398Z" fill="#0487A5"/>
<path d="M115.203 51.2665C115.827 48.7698 115.702 46.1188 116.188 43.5941C116.244 43.2995 116.036 42.8647 116.66 43.0891C117.105 43.2714 120.062 45.4455 120.062 45.8523C120.089 47.3531 116.841 50.9719 115.203 51.2665Z" fill="#0487A5"/>
<path d="M42.2604 67.8597V57.6485H44.329V61.7583H48.7022V57.6485H50.7708V67.8597H48.7022V63.5256H44.329V67.8597H42.2604Z" fill="white"/>
<path d="M74.4693 68C73.5808 68 72.7756 67.7896 72.0537 67.3828C71.3317 66.9761 70.7764 66.3729 70.3599 65.5875C69.9434 64.802 69.7352 63.8622 69.7352 62.7682C69.7352 61.6741 69.9434 60.7203 70.3599 59.9348C70.7764 59.1493 71.3317 58.5462 72.0537 58.1394C72.7756 57.7327 73.5669 57.5223 74.4693 57.5223C75.3717 57.5223 76.1631 57.7327 76.885 58.1394C77.6069 58.5462 78.1623 59.1493 78.5787 59.9348C78.9952 60.7203 79.2035 61.6601 79.2035 62.7682C79.2035 63.8762 78.9952 64.816 78.5787 65.5875C78.1623 66.3589 77.6069 66.9621 76.885 67.3828C76.1631 67.8036 75.3717 68 74.4693 68ZM74.4693 66.1485C74.9969 66.1485 75.455 66.0223 75.8438 65.7558C76.2325 65.4893 76.5379 65.1106 76.7601 64.6056C76.9822 64.1007 77.0932 63.4835 77.0932 62.7541C77.0932 62.0248 76.9822 61.4076 76.7601 60.9026C76.5379 60.3977 76.2325 60.019 75.8438 59.7525C75.455 59.486 74.9969 59.3597 74.4693 59.3597C73.9418 59.3597 73.4975 59.486 73.0949 59.7525C72.6923 60.019 72.3869 60.3977 72.1786 60.9026C71.9704 61.4076 71.8454 62.0248 71.8454 62.7541C71.8454 63.4835 71.9565 64.1007 72.1786 64.5916C72.4007 65.0825 72.7062 65.4752 73.0949 65.7418C73.4836 66.0083 73.9418 66.1345 74.4693 66.1345V66.1485Z" fill="white"/>
<path d="M98.154 67.8597V57.6485H101.305L102.944 62.3474C103.013 62.5718 103.096 62.8523 103.18 63.1889C103.263 63.5256 103.36 63.8903 103.457 64.283C103.555 64.6757 103.638 65.0404 103.721 65.4051C103.804 65.7698 103.86 66.0784 103.916 66.3449H103.485C103.541 66.0784 103.61 65.7698 103.68 65.4191C103.749 65.0685 103.846 64.6898 103.943 64.297C104.04 63.9043 104.124 63.5396 104.221 63.203C104.318 62.8663 104.388 62.5858 104.457 62.3614L106.067 57.6625H109.233V67.8738H107.164V63.0487C107.164 62.8243 107.164 62.5437 107.164 62.2211C107.164 61.8985 107.178 61.5338 107.192 61.1551C107.206 60.7764 107.22 60.3977 107.22 60.005C107.22 59.6122 107.234 59.2616 107.234 58.9109H107.386C107.303 59.2896 107.192 59.6683 107.095 60.0751C106.998 60.4819 106.887 60.8606 106.775 61.2393C106.664 61.618 106.567 61.9546 106.484 62.2772C106.401 62.5998 106.317 62.8523 106.248 63.0487L104.568 67.8738H102.833L101.125 63.0487C101.056 62.8383 100.972 62.5858 100.875 62.2772C100.778 61.9687 100.681 61.618 100.57 61.2533C100.459 60.8886 100.348 60.4959 100.25 60.0891C100.153 59.6823 100.042 59.3036 99.9449 58.9249H100.139C100.139 59.2475 100.139 59.6122 100.153 59.9909C100.167 60.3696 100.167 60.7624 100.181 61.1411C100.195 61.5198 100.195 61.8845 100.209 62.2071C100.223 62.5297 100.209 62.8243 100.209 63.0487V67.8738H98.154V67.8597Z" fill="white"/>
<path d="M128.461 67.8597V57.6485H135.333V59.4018H130.53V61.8424H134.958V63.5677H130.53V66.1064H135.333V67.8597H128.447H128.461Z" fill="white"/>
</g>
<defs>
<clipPath id="clip0_1_3">
<rect width="236" height="68" fill="white"/>
</clipPath>
</defs>
</svg>
