<svg width="135" height="39" viewBox="0 0 135 39" fill="none" xmlns="http://www.w3.org/2000/svg">
<g clip-path="url(#clip0_2604_252)">
<path d="M70.5457 29.4109L71.4113 25.2679H89.9471C93.5764 24.9783 94.4818 21.8651 90.1377 21.5192C86.1113 21.2054 76.1366 22.1949 73.2617 19.4276C71.2287 17.4728 72.0546 13.8286 73.6906 11.8657C76.351 8.68812 87.5646 5.92884 91.8452 4.875C98.4288 3.27413 126.86 0.410272 133.602 0.0321784C133.896 0.0160893 134.881 -0.104579 135 0.225248C127.193 1.5526 98.6194 4.93936 91.1463 7.56188C88.2952 8.55941 79.6389 11.6244 78.0664 13.8527C75.3583 17.6739 81.4257 17.1027 83.4508 17.2073C86.5878 17.3762 93.8544 16.9981 96.3242 18.2611C99.9377 20.1275 98.4685 25.8069 95.5777 27.7939C94.7439 28.3651 92.3852 29.4028 91.4163 29.4028H70.5298H70.5457V29.4109Z" fill="white"/>
<path d="M28.0419 29.4109H23.1181L21.6013 24.56L8.99788 24.5278L8.44991 24.7209L5.47973 29.4028H0L10.7609 12.0668C12.246 10.2568 13.8979 9.49257 16.2168 9.33972C18.7264 9.17079 22.8005 8.88923 24.0791 11.5359L28.0022 29.4109H28.034H28.0419ZM11.5074 20.216H20.6959L20.9024 19.8218C20.3385 18.7358 20.0844 14.448 19.0758 13.9814C18.1705 13.5631 15.6847 13.6918 14.9541 14.4158C14.3744 14.987 12.2063 18.6955 11.7298 19.5965C11.6266 19.8057 11.436 19.9264 11.5074 20.216Z" fill="white"/>
<path d="M64.4146 9.33973L64.1922 9.95916C60.3008 15.1962 57.3386 22.2915 53.3519 27.3193C51.438 29.7568 48.4281 30.3199 45.4738 29.6844C42.9881 29.1535 42.726 27.3837 42.2336 25.276C41.0106 20.0068 40.1529 14.617 38.9934 9.33168H44.0919L47.4354 24.3267C48.1501 25.815 49.2778 25.2277 49.9926 24.0854L59.1334 9.32364H64.4226L64.4067 9.33973H64.4146Z" fill="white"/>
<path d="M37.4925 9.33972L33.9664 29.4109H29.1538L32.9579 9.33972H37.4925Z" fill="white"/>
<path d="M100.422 9.33972L99.3976 13.8447H79.0749C78.9876 13.4103 79.1305 13.547 79.3132 13.4264C80.8777 12.4208 88.2793 9.34777 89.9311 9.34777H100.43L100.422 9.33972Z" fill="white"/>
<path d="M71.0935 9.33973L68.9493 19.8379C68.2504 19.508 67.6151 19.0093 66.8686 18.7519C66.3603 18.5749 64.7164 18.4059 64.6052 18.0278L66.2571 9.32364H71.0856V9.33973H71.0935Z" fill="white"/>
<path d="M67.1942 20.4091C67.2974 20.8596 67.1227 20.7067 66.9559 20.8274C65.6059 21.7766 63.9381 22.2995 62.5563 23.2247L62.7628 20.0631C64.2161 19.6126 65.8124 19.7735 67.1942 20.4091Z" fill="#0487A5"/>
<path d="M69.0525 25.284L65.1611 22.7581L67.9407 21.2537C69.1161 22.3076 69.1478 23.8119 69.0525 25.3082V25.2921V25.284Z" fill="#0487A5"/>
<path d="M61.4445 25.6461L59.2129 23.8682C59.6735 22.2995 60.5947 21.1733 61.9925 20.393L61.4445 25.6461Z" fill="#0487A5"/>
<path d="M65.1295 29.9418C63.8032 30.2314 62.1831 30.4084 61.0713 29.5074L65.5186 26.7803L65.1136 29.9418H65.1295Z" fill="#0487A5"/>
<path d="M59.0381 24.914L62.9296 27.44C62.3498 27.7537 60.6821 29.0087 60.15 28.7673C59.1652 28.3168 58.8714 25.8793 59.0381 24.914Z" fill="#0487A5"/>
<path d="M65.8998 29.4029C66.2572 27.971 66.1857 26.4505 66.4636 25.0025C66.4954 24.8336 66.3763 24.5842 66.7336 24.7129C66.9878 24.8175 68.6794 26.0644 68.6794 26.2977C68.6952 27.1585 66.8369 29.2339 65.8998 29.4029Z" fill="#0487A5"/>
<path d="M24.1743 38.9195V33.0631H25.3576V35.4202H27.8592V33.0631H29.0425V38.9195H27.8592V36.4338H25.3576V38.9195H24.1743Z" fill="white"/>
<path d="M42.599 39C42.0907 39 41.6301 38.8793 41.2171 38.646C40.8042 38.4128 40.4865 38.0668 40.2482 37.6163C40.01 37.1658 39.8909 36.6269 39.8909 35.9994C39.8909 35.3719 40.01 34.8249 40.2482 34.3744C40.4865 33.9239 40.8042 33.578 41.2171 33.3447C41.6301 33.1114 42.0828 32.9907 42.599 32.9907C43.1152 32.9907 43.5679 33.1114 43.9808 33.3447C44.3938 33.578 44.7114 33.9239 44.9497 34.3744C45.1879 34.8249 45.3071 35.3639 45.3071 35.9994C45.3071 36.6349 45.1879 37.1739 44.9497 37.6163C44.7114 38.0588 44.3938 38.4047 43.9808 38.646C43.5679 38.8874 43.1152 39 42.599 39ZM42.599 37.9381C42.9008 37.9381 43.1628 37.8657 43.3852 37.7129C43.6076 37.56 43.7823 37.3428 43.9093 37.0532C44.0364 36.7636 44.0999 36.4097 44.0999 35.9913C44.0999 35.573 44.0364 35.2191 43.9093 34.9295C43.7823 34.6399 43.6076 34.4227 43.3852 34.2698C43.1628 34.117 42.9008 34.0446 42.599 34.0446C42.2972 34.0446 42.0431 34.117 41.8127 34.2698C41.5824 34.4227 41.4077 34.6399 41.2886 34.9295C41.1695 35.2191 41.098 35.573 41.098 35.9913C41.098 36.4097 41.1615 36.7636 41.2886 37.0452C41.4157 37.3267 41.5904 37.552 41.8127 37.7048C42.0351 37.8577 42.2972 37.9301 42.599 37.9301V37.9381Z" fill="white"/>
<path d="M56.1473 38.9195V33.0631H57.9501L58.8872 35.758C58.9269 35.8868 58.9746 36.0476 59.0222 36.2407C59.0699 36.4338 59.1255 36.6429 59.181 36.8682C59.2366 37.0934 59.2843 37.3026 59.3319 37.5118C59.3796 37.7209 59.4114 37.8979 59.4431 38.0507H59.1969C59.2287 37.8979 59.2684 37.7209 59.3081 37.5198C59.3478 37.3187 59.4034 37.1015 59.459 36.8762C59.5146 36.651 59.5622 36.4418 59.6178 36.2488C59.6734 36.0557 59.7131 35.8948 59.7528 35.7661L60.6741 33.0712H62.4848V38.9276H61.3015V36.1603C61.3015 36.0316 61.3015 35.8707 61.3015 35.6856C61.3015 35.5006 61.3094 35.2915 61.3174 35.0742C61.3253 34.857 61.3332 34.6398 61.3332 34.4146C61.3332 34.1893 61.3412 33.9882 61.3412 33.7871H61.4285C61.3809 34.0043 61.3174 34.2215 61.2618 34.4548C61.2062 34.6881 61.1426 34.9053 61.0791 35.1225C61.0156 35.3397 60.96 35.5328 60.9123 35.7178C60.8647 35.9028 60.817 36.0476 60.7773 36.1603L59.8164 38.9276H58.8237L57.8469 36.1603C57.8071 36.0396 57.7595 35.8948 57.7039 35.7178C57.6483 35.5408 57.5927 35.3397 57.5292 35.1306C57.4657 34.9214 57.4021 34.6962 57.3465 34.4629C57.2909 34.2296 57.2274 34.0124 57.1718 33.7952H57.283C57.283 33.9802 57.283 34.1893 57.2909 34.4066C57.2989 34.6238 57.2989 34.849 57.3068 35.0662C57.3148 35.2834 57.3148 35.4926 57.3227 35.6776C57.3306 35.8626 57.3227 36.0316 57.3227 36.1603V38.9276H56.1473V38.9195Z" fill="white"/>
<path d="M73.484 38.9195V33.0631H77.4151V34.0687H74.6673V35.4684H77.2007V36.4579H74.6673V37.914H77.4151V38.9195H73.4761H73.484Z" fill="white"/>
</g>
<defs>
<clipPath id="clip0_2604_252">
<rect width="135" height="39" fill="white"/>
</clipPath>
</defs>
</svg>
