<svg width="112" height="112" viewBox="0 0 112 112" fill="none" xmlns="http://www.w3.org/2000/svg">
<path fill-rule="evenodd" clip-rule="evenodd" d="M21.9666 15.3668C20.1441 13.5444 17.1894 13.5444 15.3669 15.3668C13.5445 17.1893 13.5445 20.144 15.3669 21.9665L25.0494 31.649C25.8816 32.4812 25.9569 33.7985 25.2866 34.7659C23.5171 37.3198 22.1013 40.047 21.0405 42.8773C20.8036 43.5097 20.3198 44.0185 19.7053 44.2985C10.8366 48.3387 4.66675 57.2773 4.66675 67.6667C4.66675 81.8421 16.1581 93.3333 30.3334 93.3333H86.3334C86.5868 93.3333 86.8314 93.4309 87.0106 93.6101L90.0336 96.6331C91.856 98.4555 94.8109 98.4555 96.6332 96.6331C98.4556 94.8108 98.4556 91.8559 96.6332 90.0335L91.8574 85.2577C91.835 85.2348 91.8126 85.2124 91.7902 85.1905L36.2011 29.6014L21.9666 15.3668ZM75.7989 36.201C69.0738 29.4757 59.7801 26.8825 51.0595 28.4364C48.5222 28.8885 46.0987 27.1981 45.6466 24.6608C45.1944 22.1234 46.8847 19.7 49.4224 19.2478C61.0182 17.1816 73.425 20.6277 82.399 29.6014C88.4068 35.6093 91.9395 43.1618 92.9956 50.9773C93.1183 51.8849 93.7287 52.6521 94.571 53.0119C102.075 56.2151 107.333 63.6575 107.333 72.3333C107.333 73.8934 107.163 75.4194 106.836 76.8908C106.279 79.4071 103.787 80.9951 101.271 80.4379C98.7547 79.8803 97.1666 77.3887 97.7238 74.8725C97.904 74.0591 98.0001 73.2102 98.0001 72.3333C98.0001 66.4599 93.6554 61.593 88.0055 60.7852C85.6983 60.4548 83.988 58.4729 83.9996 56.1419C84.036 48.9216 81.3032 41.7052 75.7989 36.201Z" fill="#808080"/>
</svg>
