<svg width="24" height="24" viewBox="0 0 24 24" fill="none" xmlns="http://www.w3.org/2000/svg">
<path d="M13.6 6.30151C14.9785 7.67998 16.32 9.03382 17.6985 10.4123C17.6124 10.5107 17.5016 10.6338 17.3785 10.7569C14.4616 13.6738 11.557 16.6031 8.61543 19.4954C8.2462 19.8523 7.74158 20.1231 7.26158 20.2954C6.11697 20.6769 4.94774 20.9846 3.79081 21.3046C3.07697 21.5015 2.49851 20.96 2.69543 20.2338C3.05235 18.9169 3.4462 17.6 3.85235 16.2831C3.93851 16.0123 4.12312 15.7538 4.32004 15.5446C7.36004 12.4923 10.4 9.45228 13.4524 6.39998C13.4893 6.38767 13.5385 6.35074 13.6 6.30151Z" fill="#B6B6B6"/>
<path d="M18.6462 9.46467C17.2677 8.0739 15.9138 6.72006 14.5969 5.37852C15.2738 4.67698 15.9631 3.87698 16.7385 3.18775C17.5754 2.43698 18.8431 2.48621 19.7046 3.23698C20.0862 3.56929 20.4431 3.92621 20.7754 4.30775C21.5385 5.18159 21.5508 6.49852 20.7754 7.36006C20.0985 8.08621 19.36 8.75083 18.6462 9.46467Z" fill="#B6B6B6"/>
</svg>
