<svg width="41" height="41" viewBox="0 0 41 41" fill="none" xmlns="http://www.w3.org/2000/svg">
<rect width="40.3497" height="40.3497" rx="16" fill="#030C11"/>
<path d="M24.8548 19.7869H28.7299C28.9117 19.787 29.0905 19.8335 29.2492 19.9221C29.408 20.0107 29.5415 20.1384 29.637 20.293C29.7326 20.4477 29.787 20.6242 29.7952 20.8058C29.8034 20.9874 29.765 21.1681 29.6838 21.3308L27.5136 25.6721C27.4313 25.8366 27.3079 25.9771 27.1553 26.0798C27.0028 26.1826 26.8262 26.2441 26.6428 26.2585C26.4595 26.2729 26.2755 26.2396 26.1088 26.1619C25.942 26.0842 25.7982 25.9648 25.6913 25.8151L23.4251 22.6463M9.11743 27.2555H13.1291C13.5268 27.2582 13.9173 27.1498 14.2567 26.9424C14.596 26.7351 14.8707 26.437 15.0496 26.0818L16.586 22.9877M9.11743 29.3894V25.1216M14.4521 16.5861H14.4628M25.2346 16.6426C25.4875 16.7692 25.6798 16.991 25.7692 17.2593C25.8586 17.5276 25.8379 17.8204 25.7115 18.0734L22.3976 24.7002C22.335 24.8255 22.2482 24.9373 22.1423 25.0291C22.0364 25.1209 21.9135 25.191 21.7805 25.2352C21.6476 25.2795 21.5072 25.2972 21.3674 25.2872C21.2276 25.2772 21.0911 25.2398 20.9658 25.1771L10.8352 20.107C10.0994 19.7363 9.54032 19.0893 9.28037 18.3075C9.02043 17.5257 9.08077 16.6727 9.44818 15.9352L10.9206 12.9585C11.1041 12.5928 11.3578 12.2668 11.6674 11.9991C11.9769 11.7315 12.3361 11.5274 12.7245 11.3986C13.1128 11.2698 13.5228 11.2188 13.9309 11.2485C14.339 11.2781 14.7373 11.3879 15.103 11.5715L25.2346 16.6426Z" stroke="white" stroke-width="1.55191" stroke-linecap="round" stroke-linejoin="round"/>
</svg>
