<svg width="24" height="24" viewBox="0 0 24 24" fill="none" xmlns="http://www.w3.org/2000/svg">
<path d="M18.0162 9.4479V6.61601C18.0162 3.30002 15.3203 0.599976 12.0002 0.599976C8.68421 0.599976 5.98416 3.30002 5.98416 6.61601V9.4479C4.59615 9.5639 3.50415 10.7359 3.50415 12.1518V15.5279C3.50415 19.8679 7.03211 23.4 11.3721 23.4H12.6281C16.9681 23.4 20.496 19.8679 20.496 15.5279V12.1518C20.496 10.7358 19.4042 9.56386 18.0162 9.4479ZM8.58821 6.61601C8.77521 2.09502 15.2253 2.09605 15.4122 6.61601V9.43612H8.58821L8.58821 6.61601ZM11.0482 16.7322C9.64422 15.8162 10.3292 13.5772 12.0002 13.592C13.6712 13.578 14.3573 15.8151 12.9523 16.7322C12.8443 16.8042 12.7763 16.9322 12.7763 17.0642V18.4682C12.7503 19.4902 11.2513 19.4922 11.2243 18.4682V17.0642C11.2243 16.9322 11.1562 16.8042 11.0482 16.7322Z" fill="#B6B6B6"/>
</svg>
