<svg width="32" height="32" viewBox="0 0 32 32" fill="none" xmlns="http://www.w3.org/2000/svg">
<path d="M28.0747 12.8538C28.7516 12.6608 29.1438 11.9556 28.9508 11.2787L26.8538 3.92527C26.6608 3.2484 25.9556 2.85616 25.2787 3.04919L17.9253 5.14619C17.2484 5.33922 16.8562 6.0444 17.0492 6.72127L19.1462 14.0747C19.3392 14.7516 20.0444 15.1438 20.7213 14.9508L28.0747 12.8538Z" fill="white"/>
<path d="M11.75 17C12.4404 17 13 16.4404 13 15.75V8.25C13 7.55965 12.4404 7 11.75 7H4.25C3.55965 7 3 7.55965 3 8.25V15.75C3 16.4404 3.55965 17 4.25 17H11.75Z" fill="white"/>
<path d="M11.75 29C12.4404 29 13 28.4404 13 27.75V20.25C13 19.5596 12.4404 19 11.75 19H4.25C3.55965 19 3 19.5596 3 20.25V27.75C3 28.4404 3.55965 29 4.25 29H11.75Z" fill="white"/>
<path d="M23.75 29C24.4404 29 25 28.4404 25 27.75V20.25C25 19.5596 24.4404 19 23.75 19H16.25C15.5596 19 15 19.5596 15 20.25V27.75C15 28.4404 15.5596 29 16.25 29H23.75Z" fill="white"/>
</svg>
