<svg xmlns="http://www.w3.org/2000/svg" shape-rendering="geometricPrecision" text-rendering="geometricPrecision"
     image-rendering="optimizeQuality" fill-rule="evenodd" clip-rule="evenodd" viewBox="0 0 512 244.41" height="300">
    <path fill="#fff" fill-rule="nonzero"
          d="M3.36 118.61L100.02 5.68C102.58 2.24 106.67 0 111.29 0h362.97c.46 0 .73.05 1.16.06 10.35.22 19.53 4.46 26.1 11.24 6.33 6.54 10.23 15.39 10.42 25.23l.06 1.25v169.6c-.03.65-.07 1.31-.16 1.97-1.42 9.92-6.3 18.69-13.31 24.96-6.71 6.01-15.36 9.72-24.8 10.03l-4.21.07H111.29v-.03c-3.69 0-7.38-1.46-10.13-4.35L3.85 137.33c-4.89-5.13-5.2-13.23-.49-18.72zm247.27-43.88h32.06l-23.55 94.96h-44.36l-23.55-94.96h32.05l12.92 60.32h1.37l13.06-60.32zm39.65 94.96V74.73h30.39v94.96h-30.39zm95.71-22.94h-19.75v22.94h-30.38V74.73h47.86c21.77 0 32.66 11.7 32.66 35.1 0 12.86-2.84 22.38-8.51 28.56-2.13 2.33-5.06 4.3-8.81 5.92-3.75 1.63-8.1 2.44-13.07 2.44zm-19.75-47.71v23.4h6.99c3.65 0 6.31-.38 7.98-1.14 1.67-.76 2.51-2.51 2.51-5.24v-10.64c0-2.73-.84-4.48-2.51-5.24-1.67-.76-4.33-1.14-7.98-1.14h-6.99zm-291.77 4.98c5-5.17 11.1-7.83 18.27-8.01 7.2-.21 13.53 2.18 18.97 7.17 5.14 4.97 7.76 11.1 7.91 18.38.08 7.27-2.35 13.49-7.31 18.63-4.83 5.27-10.93 8-18.27 8.22-7.3.18-13.56-2.21-18.73-7.21-5.28-5.1-8.01-11.27-8.12-18.58-.12-7.24 2.31-13.46 7.28-18.6zm36.82-90.01L13.97 127.69l97.32 102.71h360.98c12.97.09 23.85-9.86 25.72-23.02V37.78c.25-13.14-9.88-23.58-23.02-23.77H111.29z"/>
</svg>
