<svg width="24" height="24" viewBox="0 0 24 24" fill="none" xmlns="http://www.w3.org/2000/svg">
<g clip-path="url(#clip0_27_1373)">
<path d="M10.5114 9.78272C10.2368 10.0574 10.2368 10.5023 10.5114 10.777C10.786 11.0516 11.231 11.0516 11.5057 10.777C11.5832 10.7001 11.7501 10.5703 12.0001 10.5703C12.25 10.5703 12.4169 10.7001 12.4944 10.777C12.7691 11.0516 13.214 11.0517 13.4887 10.777C13.7634 10.5023 13.7634 10.0574 13.4887 9.78272C13.258 9.55134 12.7574 9.16406 12.0001 9.16406C11.2427 9.16406 10.7421 9.55134 10.5114 9.78272Z" fill="#B6B6B6"/>
<path d="M12 0.726562C9.18338 0.726562 6.53428 1.82522 4.54167 3.81923C4.26703 4.09387 4.26703 4.53952 4.54167 4.8135C4.81631 5.08814 5.2613 5.08814 5.53594 4.8135C7.26352 3.08452 9.55899 2.13281 12 2.13281C14.441 2.13281 16.7365 3.08452 18.4641 4.8135C18.7387 5.08814 19.1836 5.08819 19.4583 4.8135C19.733 4.53952 19.733 4.09387 19.4583 3.81923C17.4657 1.82522 14.8166 0.726562 12 0.726562Z" fill="#B6B6B6"/>
<path d="M17.4685 6.80133C17.7432 6.52734 17.7432 6.0817 17.4685 5.80706C16.0074 4.34452 14.0656 3.53906 12.0001 3.53906C9.93465 3.53906 7.99285 4.34452 6.53166 5.80706C6.25702 6.0817 6.25702 6.52734 6.53166 6.80133C6.8063 7.07597 7.25129 7.07597 7.52593 6.80133C8.72204 5.60452 10.3103 4.94531 12.0001 4.94531C13.6899 4.94531 15.2782 5.60452 16.4743 6.80133C16.7489 7.07597 17.1939 7.07597 17.4685 6.80133Z" fill="#B6B6B6"/>
<path d="M15.4785 8.78916C15.7531 8.51517 15.7531 8.06953 15.4785 7.79489C13.6191 5.93409 10.3808 5.93409 8.52141 7.79489C8.24677 8.06953 8.24677 8.51517 8.52141 8.78916C8.79605 9.0638 9.24104 9.0638 9.51568 8.78916C10.845 7.45842 13.1549 7.45842 14.4842 8.78916C14.7589 9.0638 15.2038 9.0638 15.4785 8.78916Z" fill="#B6B6B6"/>
<path d="M21.8906 13.3828H2.10938C0.946219 13.3828 0 14.329 0 15.4922V19.7109C0 20.8741 0.946219 21.8203 2.10938 21.8203H2.8125V22.5703C2.8125 22.959 3.12698 23.2734 3.51562 23.2734C3.90427 23.2734 4.21875 22.959 4.21875 22.5703V21.8203H19.7812V22.5703C19.7812 22.959 20.0957 23.2734 20.4844 23.2734C20.873 23.2734 21.1875 22.959 21.1875 22.5703V21.8203H21.8906C23.0538 21.8203 24 20.8741 24 19.7109V15.4922C24 14.329 23.0538 13.3828 21.8906 13.3828ZM15.5625 18.3047C15.5625 18.6933 15.248 19.0078 14.8594 19.0078C14.4707 19.0078 14.1562 18.6933 14.1562 18.3047V16.8984C14.1562 16.5098 14.4707 16.1953 14.8594 16.1953C15.248 16.1953 15.5625 16.5098 15.5625 16.8984V18.3047ZM18.375 18.3047C18.375 18.6933 18.0605 19.0078 17.6719 19.0078C17.2832 19.0078 16.9688 18.6933 16.9688 18.3047V16.8984C16.9688 16.5098 17.2832 16.1953 17.6719 16.1953C18.0605 16.1953 18.375 16.5098 18.375 16.8984V18.3047ZM21.1875 18.3047C21.1875 18.6933 20.873 19.0078 20.4844 19.0078C20.0957 19.0078 19.7812 18.6933 19.7812 18.3047V16.8984C19.7812 16.5098 20.0957 16.1953 20.4844 16.1953C20.873 16.1953 21.1875 16.5098 21.1875 16.8984V18.3047Z" fill="#B6B6B6"/>
<path d="M0.473405 3.59602C0.116312 3.74911 -0.0491571 4.1625 0.103984 4.51885L3.30016 11.9765H4.82959L1.39623 3.96544C1.24314 3.60699 0.825624 3.44082 0.473405 3.59602Z" fill="#B6B6B6"/>
<path d="M20.7 11.9766L23.8962 4.51893C24.0494 4.16254 23.8838 3.7492 23.5268 3.59606C23.1718 3.44226 22.7571 3.60773 22.6039 3.96548L19.1707 11.9766H20.7Z" fill="#B6B6B6"/>
</g>
<defs>
<clipPath id="clip0_27_1373">
<rect width="24" height="24" fill="white"/>
</clipPath>
</defs>
</svg>
